<svg width="512" height="512" viewBox="0 0 512 512" fill="none" xmlns="http://www.w3.org/2000/svg">
  <!-- Outer Glow -->
  <circle cx="256" cy="256" r="240" fill="url(#paint0_radial)" fill-opacity="0.3"/>
  
  <!-- Main Coin Body -->
  <circle cx="256" cy="256" r="200" fill="url(#paint1_linear)" stroke="#B8860B" stroke-width="8"/>
  
  <!-- Inner Rim -->
  <circle cx="256" cy="256" r="170" stroke="#DAA520" stroke-width="4" stroke-dasharray="20 10"/>
  
  <!-- Stylized "E" (for EIZZO) -->
  <path d="M180 160H332V210H230V235H320V280H230V305H332V355H180V160Z" fill="url(#paint2_linear)" filter="url(#shadow)"/>
  
  <!-- Shine Effect -->
  <path d="M256 56C145.543 56 56 145.543 56 256C56 270.5 57.5 284.5 60.5 298C85 180 180 85 298 60.5C284.5 57.5 270.5 56 256 56Z" fill="white" fill-opacity="0.2"/>

  <defs>
    <filter id="shadow" x="0" y="0" width="200%" height="200%">
      <feDropShadow dx="4" dy="4" stdDeviation="4" flood-color="#000" flood-opacity="0.5"/>
    </filter>
    <radialGradient id="paint0_radial" cx="0" cy="0" r="1" gradientUnits="userSpaceOnUse" gradientTransform="translate(256 256) rotate(90) scale(240)">
      <stop stop-color="#FFD700"/>
      <stop offset="1" stop-color="#FFD700" stop-opacity="0"/>
    </radialGradient>
    <linearGradient id="paint1_linear" x1="256" y1="56" x2="256" y2="456" gradientUnits="userSpaceOnUse">
      <stop stop-color="#FFD700"/>
      <stop offset="1" stop-color="#DAA520"/>
    </linearGradient>
    <linearGradient id="paint2_linear" x1="256" y1="160" x2="256" y2="355" gradientUnits="userSpaceOnUse">
      <stop stop-color="#FFFACD"/>
      <stop offset="1" stop-color="#FFD700"/>
    </linearGradient>
  </defs>
</svg>
